<svg width="184" height="60" viewBox="0 0 184 60" fill="none" xmlns="http://www.w3.org/2000/svg">
<path d="M6.9918 1.59999C9.83293 1.55965 11.7244 2.13951 13.9148 4.14999C16.1057 7.0077 17.0239 9.46708 17.0101 13.212C17.0103 13.6107 17.0103 13.6107 17.0106 14.0175C17.0106 14.5899 17.0092 15.1624 17.0063 15.7348C17.0025 16.6454 17.0045 17.5559 17.0083 18.4665C17.0185 21.054 17.0232 23.6413 17.0124 26.2288C17.0062 27.8168 17.0109 29.4045 17.0222 30.9925C17.0244 31.5925 17.0227 32.1926 17.0167 32.7926C16.9795 36.6864 17.3516 39.951 19.5038 43.2C22.2453 45.8173 24.5784 46.1423 28.1561 46.1141C29.8603 45.9626 31.0013 45.4613 32.3838 44.4C32.7253 44.1442 33.0669 43.8885 33.4188 43.625C34.2637 42.7591 34.7464 41.8834 35.3278 40.8C35.5707 40.8 35.8136 40.8 36.0638 40.8C36.2284 41.2295 36.393 41.659 36.5626 42.1016C36.7872 42.6761 37.0119 43.2506 37.2368 43.825C37.3442 44.1068 37.4517 44.3886 37.5624 44.6789C38.1477 46.1635 38.7603 47.4294 39.6705 48.7109C40.4798 50 40.4798 50 40.3842 50.8369C39.6671 52.8459 37.4164 54.0526 35.7404 54.9969C30.0978 57.6996 24.4494 57.8459 18.6629 55.5125C13.6029 52.9577 10.0524 48.743 8.1418 43.075C7.2537 40.2206 6.93828 37.7853 6.95002 34.7948C6.94997 34.4356 6.94991 34.0764 6.94986 33.7063C6.95011 32.5224 6.95298 31.3385 6.95586 30.1547C6.95655 29.3325 6.95707 28.5103 6.95744 27.6881C6.95884 25.5266 6.96246 23.3651 6.96653 21.2036C6.9703 18.9969 6.97198 16.7903 6.97383 14.5836C6.97777 10.2557 6.98405 5.92786 6.9918 1.59999Z" fill="#0771B7"/>
<path d="M38.4859 18.4693C43.4689 22.8014 45.8074 27.7756 46.5062 34.575C46.9704 38.4518 47.4722 41.6508 50.4162 44.2C52.4646 45.6788 54.23 46.1363 56.6722 46.8C56.6722 50.232 56.6722 53.664 56.6722 57.2C51.0286 57.2 46.5003 55.5539 42.3432 51.3016C38.7897 47.0806 37.1532 42.1976 36.701 36.6081C36.3989 33.1016 35.5517 30.0705 33.1202 27.6C30.5931 25.7981 27.8995 24.738 24.8704 25.3922C22.1229 26.2976 20.233 28.0066 18.0322 30C18.0322 25.644 18.0322 21.288 18.0322 16.8C24.9221 13.4715 32.179 13.3803 38.4859 18.4693Z" fill="#0771B7"/>
<path d="M36.7998 1.60001C39.9434 1.97967 41.9092 2.29039 44.0966 4.75938C46.3913 7.91965 46.4138 10.2001 46.7358 14.4C51.6541 14.598 51.6541 14.598 56.6718 14.8C56.6718 18.232 56.6718 21.664 56.6718 25.2C53.2715 25.2 49.8712 25.2 46.3678 25.2C46.2464 25.728 46.1249 26.256 45.9998 26.8C45.7778 26.4478 45.5558 26.0957 45.3271 25.7328C45.03 25.2635 44.7329 24.7943 44.4358 24.325C44.2902 24.0937 44.1445 23.8625 43.9945 23.6242C42.6206 21.4576 41.3653 19.5926 39.3298 18.1C39.0101 17.8628 38.6903 17.6256 38.3609 17.3813C37.5673 16.7986 37.5673 16.7986 36.7998 16.4C36.7998 11.516 36.7998 6.63201 36.7998 1.60001Z" fill="#2AA9E0"/>
<path d="M120.704 14.8C128.015 14.8 128.015 14.8 130.249 16.35C131.414 17.6542 131.853 18.7585 131.882 20.575C131.856 22.3068 131.437 23.1737 130.272 24.4C130.454 24.6171 130.635 24.8342 130.823 25.0578C131.058 25.344 131.294 25.6302 131.537 25.925C131.772 26.2081 132.007 26.4912 132.249 26.7828C133.366 28.3058 133.358 29.7129 133.216 31.6C132.424 34.3805 131.674 34.8437 129.168 36.4C126.375 36.4 123.582 36.4 120.704 36.4C120.704 29.272 120.704 22.144 120.704 14.8ZM124.384 19.2C124.384 20.52 124.384 21.84 124.384 23.2C126.147 23.2937 126.147 23.2937 127.696 22.4C127.88 21.2 127.88 21.2 127.696 20C126.432 19.0839 125.862 19.1286 124.384 19.2ZM124.384 27.2C124.384 28.916 124.384 30.632 124.384 32.4C126.058 32.4713 127.284 32.3991 128.8 31.6C129.082 30.2582 129.082 30.2582 129.168 28.8C128.569 27.8493 128.194 27.6292 127.151 27.3953C126.658 27.3605 126.658 27.3605 126.155 27.325C125.278 27.2631 125.278 27.2631 124.384 27.2Z" fill="white"/>
<path d="M69.5518 14.8C76.8627 14.8 76.8627 14.8 79.0968 16.35C80.2613 17.6542 80.7008 18.7585 80.7298 20.575C80.7035 22.3068 80.2844 23.1737 79.1198 24.4C79.3014 24.6171 79.4831 24.8342 79.6703 25.0578C79.9061 25.344 80.1418 25.6302 80.3848 25.925C80.6196 26.2081 80.8544 26.4912 81.0963 26.7828C82.2135 28.3058 82.2061 29.7129 82.0638 31.6C81.2715 34.3805 80.5214 34.8437 78.0158 36.4C75.2226 36.4 72.4295 36.4 69.5518 36.4C69.5518 29.272 69.5518 22.144 69.5518 14.8ZM73.2318 19.2C73.2318 20.52 73.2318 21.84 73.2318 23.2C74.9944 23.2937 74.9944 23.2937 76.5438 22.4C76.7278 21.2 76.7278 21.2 76.5438 20C75.2796 19.0839 74.7092 19.1286 73.2318 19.2ZM73.2318 27.2C73.2318 28.916 73.2318 30.632 73.2318 32.4C74.9054 32.4713 76.1314 32.3991 77.6478 31.6C77.9294 30.2582 77.9294 30.2582 78.0158 28.8C77.4164 27.8493 77.0418 27.6292 75.9989 27.3953C75.5058 27.3605 75.5058 27.3605 75.0028 27.325C74.1261 27.2631 74.1261 27.2631 73.2318 27.2Z" fill="white"/>
<path d="M94.5988 21.025C94.8341 21.2147 95.0694 21.4045 95.3118 21.6C95.4333 21.204 95.5547 20.808 95.6798 20.4C96.8942 20.4 98.1086 20.4 99.3598 20.4C99.3598 25.68 99.3598 30.96 99.3598 36.4C98.1454 36.4 96.931 36.4 95.6798 36.4C95.5584 36.136 95.4369 35.872 95.3118 35.6C94.9226 35.8908 94.9226 35.8908 94.5255 36.1875C92.7514 37.2188 91.0159 37.0822 89.0558 36.8C87.1083 36.1129 86.0202 34.8785 85.0078 32.975C83.968 30.4041 83.7933 27.7581 84.5291 25.0547C85.4816 22.7352 86.8868 21.366 88.9868 20.25C91.0006 19.8208 92.7665 20.0088 94.5988 21.025ZM89.0558 25.2C88.322 26.6092 87.9518 27.601 87.9518 29.225C88.4382 30.7779 89.0701 31.6682 90.1598 32.8C91.5514 33.3471 92.1533 33.2869 93.5408 32.725C94.8729 31.8086 94.8729 31.8086 95.6798 30.4C95.9212 28.8726 95.9605 27.4808 95.3693 26.0469C94.5486 24.7992 93.7178 24.239 92.3678 23.975C90.9522 23.9026 90.1285 24.134 89.0558 25.2Z" fill="white"/>
<path d="M147.522 21.45C149.6 23.1338 150.473 24.7733 150.857 27.55C151.01 30.2091 150.467 32.3136 148.879 34.35C146.477 36.5147 144.935 36.9657 141.792 36.9391C139.551 36.6828 138.269 35.5284 136.758 33.8C135.324 31.4019 135.138 29.2039 135.424 26.4C136.076 23.9204 137.499 22.1855 139.472 20.8C142.224 19.5021 144.983 19.7525 147.522 21.45ZM140.208 25.2C139.409 26.706 139.104 27.7084 139.104 29.45C139.554 31.0996 140.053 31.7663 141.312 32.8C142.69 33.31 143.317 33.2779 144.693 32.75C145.863 31.9023 146.311 31.4161 146.832 30C147.07 27.9648 147.051 27.2087 146.096 25.425C144.905 24.3188 144.284 24.0141 142.757 23.9359C141.613 24.0393 141.054 24.3593 140.208 25.2Z" fill="white"/>
<path d="M163.76 20.4C165.04 21.1475 165.821 22.0183 166.391 23.4971C166.731 24.912 166.788 26.1108 166.776 27.5719C166.774 28.0875 166.771 28.6031 166.769 29.1344C166.763 29.6729 166.756 30.2115 166.75 30.75C166.746 31.2979 166.743 31.8458 166.74 32.3938C166.731 33.7292 166.719 35.0646 166.704 36.4C165.368 36.4 164.032 36.4 162.656 36.4C162.651 36.0933 162.645 35.7867 162.64 35.4707C162.612 34.0803 162.577 32.6902 162.541 31.3C162.533 30.8174 162.524 30.3348 162.516 29.8375C162.503 29.3734 162.49 28.9094 162.476 28.4313C162.467 28.0039 162.457 27.5766 162.447 27.1363C162.272 25.8876 161.955 25.3252 161.184 24.4C160.213 24.532 159.241 24.664 158.24 24.8C157.559 27.3534 157.355 29.7489 157.274 32.4C157.253 32.9793 157.253 32.9793 157.231 33.5703C157.197 34.5134 157.166 35.4567 157.136 36.4C155.922 36.4 154.707 36.4 153.456 36.4C153.456 31.12 153.456 25.84 153.456 20.4C154.67 20.4 155.885 20.4 157.136 20.4C157.257 20.796 157.379 21.192 157.504 21.6C157.678 21.4799 157.852 21.3597 158.032 21.2359C160.009 19.9999 161.552 19.637 163.76 20.4Z" fill="white"/>
<path d="M114.816 21.15C115.65 21.7924 116.365 22.3574 117.024 23.2C116.656 24.4 116.656 24.4 115.644 25.125C114.448 25.6 114.448 25.6 113.597 25.3C113.27 25.135 112.944 24.97 112.608 24.8C110.671 24.3618 108.871 24.1126 107.088 25.2C106.115 27.1307 106.374 28.7173 106.72 30.8C106.841 31.196 106.963 31.592 107.088 32C109.626 32.7717 110.998 32.9258 113.344 31.6C115.08 31.6 115.651 32.115 117.024 33.2C116.469 34.8871 115.463 35.5099 114.08 36.4C111.823 37.2176 108.769 37.2994 106.503 36.4375C104.621 35.2123 103.005 33.4873 102.304 31.2C102.07 28.1169 101.97 25.6799 103.776 23.2C106.697 19.951 111.024 18.8979 114.816 21.15Z" fill="white"/>
<path d="M131.376 46C133.007 46.8546 134.036 47.7503 134.688 49.6C134.884 51.5562 134.935 53.3354 134.251 55.175C132.821 56.9438 131.614 57.9201 129.421 58.1C127.55 57.9621 126.413 57.3236 125.005 56C123.785 54.4282 123.872 52.6879 123.887 50.7203C124.08 49.0487 124.712 47.9221 125.856 46.8C127.564 45.6267 129.424 45.7509 131.376 46ZM125.856 49.6C125.292 50.8257 125.404 51.8466 125.488 53.2C126.143 54.8496 126.891 55.7299 128.432 56.4C129.968 56.4832 131.045 56.2768 132.273 55.25C133.329 53.6891 133.393 52.2901 133.216 50.4C132.563 49.2098 131.797 48.229 130.64 47.6C128.287 47.3049 127.457 47.8595 125.856 49.6Z" fill="white"/>
<path d="M87.2158 46C87.823 46 88.4302 46 89.0558 46C89.0631 46.2482 89.0704 46.4964 89.0779 46.7521C89.113 47.8765 89.1533 49.0007 89.1938 50.125C89.2052 50.5156 89.2166 50.9062 89.2283 51.3086C89.2425 51.6837 89.2568 52.0588 89.2714 52.4453C89.283 52.7909 89.2946 53.1366 89.3065 53.4927C89.3767 54.511 89.3767 54.511 90.1598 55.6C92.1359 56.1199 92.1359 56.1199 94.0008 55.525C94.9509 54.3271 94.9895 53.0069 95.0602 51.4688C95.0757 51.1491 95.0911 50.8294 95.107 50.5C95.1214 50.17 95.1359 49.84 95.1508 49.5C95.1667 49.1638 95.1826 48.8276 95.199 48.4813C95.2379 47.6542 95.275 46.8271 95.3118 46C95.7976 46 96.2833 46 96.7838 46C96.8162 47.2749 96.8356 48.5497 96.8528 49.825C96.8621 50.1831 96.8713 50.5412 96.8808 50.9102C96.9039 53.1937 96.71 54.7928 95.6798 56.8C93.9712 58.1389 92.5588 58.2102 90.5278 58C89.171 57.3446 88.3372 56.5921 87.5838 55.2C87.0976 53.3125 87.1745 51.4173 87.1928 49.475C87.1945 49.1406 87.1961 48.8062 87.1978 48.4617C87.2022 47.6411 87.2088 46.8206 87.2158 46Z" fill="white"/>
<path d="M165.232 46C166.152 46.6 166.152 46.6 166.704 47.2C166.461 47.728 166.218 48.256 165.968 48.8C165.603 48.536 165.239 48.272 164.864 48C163.898 47.9331 163.898 47.9331 163.024 48C162.902 48.396 162.781 48.792 162.656 49.2C163.343 50.0296 163.991 50.5622 164.864 51.175C166.552 52.4365 166.552 52.4365 167.072 53.6C167.072 55.2772 166.943 56.1011 165.922 57.375C164.586 58.164 163.79 58.2041 162.288 58C161.207 57.4 161.207 57.4 160.448 56.8C160.691 56.272 160.934 55.744 161.184 55.2C161.449 55.3403 161.715 55.4805 161.989 55.625C163.139 56.0416 163.716 55.9564 164.864 55.6C164.998 54.6527 164.998 54.6527 164.864 53.6C164.17 52.8797 164.17 52.8797 163.254 52.35C162.084 51.6036 161.586 51.2556 160.816 50C160.881 48.6661 160.979 47.6056 161.575 46.425C162.742 45.7292 163.95 45.7813 165.232 46Z" fill="white"/>
<path d="M69.5518 42C72.2234 42 74.8951 42 77.6478 42C77.6478 42.66 77.6478 43.32 77.6478 44C76.5548 44 75.4618 44 74.3358 44C74.3358 48.488 74.3358 52.976 74.3358 57.6C73.85 57.6 73.3642 57.6 72.8638 57.6C72.8638 53.112 72.8638 48.624 72.8638 44C71.7708 44 70.6778 44 69.5518 44C69.5518 43.34 69.5518 42.68 69.5518 42Z" fill="white"/>
<path d="M109.664 42C110.15 42 110.636 42 111.136 42C111.136 43.32 111.136 44.64 111.136 46C111.865 46 112.593 46 113.344 46C113.344 46.528 113.344 47.056 113.344 47.6C112.616 47.6 111.887 47.6 111.136 47.6C111.136 50.9 111.136 54.2 111.136 57.6C110.65 57.6 110.165 57.6 109.664 57.6C109.664 54.3 109.664 51 109.664 47.6C109.057 47.6 108.45 47.6 107.824 47.6C107.824 47.072 107.824 46.544 107.824 46C108.431 46 109.039 46 109.664 46C109.664 44.68 109.664 43.36 109.664 42Z" fill="white"/>
<path d="M145.728 46C147.568 46 149.408 46 151.248 46C151.018 46.775 151.018 46.775 150.512 47.6C149.362 47.9 149.362 47.9 148.304 48C147.997 49.182 147.87 50.2804 147.82 51.5062C147.804 51.862 147.789 52.2178 147.773 52.5844C147.758 52.9525 147.744 53.3207 147.729 53.7C147.705 54.2615 147.705 54.2615 147.681 54.8344C147.642 55.7562 147.604 56.6781 147.568 57.6C146.961 57.6 146.354 57.6 145.728 57.6C145.728 53.772 145.728 49.944 145.728 46Z" fill="white"/>
</svg>
