<svg width="55" height="57" viewBox="0 0 55 57" fill="none" xmlns="http://www.w3.org/2000/svg">
<path d="M0.599997 0.600002C3.68818 0.559658 5.74417 1.13952 8.125 3.15C10.5064 6.0077 11.5044 8.46709 11.4895 12.212C11.4897 12.6107 11.4897 12.6107 11.4899 13.0175C11.49 13.5899 11.4884 14.1624 11.4853 14.7348C11.4812 15.6454 11.4834 16.5559 11.4875 17.4665C11.4986 20.054 11.5037 22.6413 11.492 25.2288C11.4852 26.8169 11.4903 28.4045 11.5026 29.9925C11.505 30.5925 11.5031 31.1926 11.4966 31.7926C11.4562 35.6864 11.8606 38.951 14.2 42.2C17.1799 44.8173 19.7159 45.1423 23.6047 45.1141C25.457 44.9626 26.6973 44.4613 28.2 43.4C28.5712 43.1443 28.9425 42.8885 29.325 42.625C30.2434 41.7591 30.768 40.8834 31.4 39.8C31.664 39.8 31.928 39.8 32.2 39.8C32.3789 40.2295 32.5578 40.659 32.7422 41.1016C32.9863 41.6761 33.2306 42.2506 33.475 42.825C33.5918 43.1068 33.7086 43.3886 33.8289 43.6789C34.4652 45.1635 35.131 46.4294 36.1203 47.7109C37 49 37 49 36.8961 49.8369C36.1166 51.8459 33.6702 53.0526 31.8484 53.9969C25.7152 56.6996 19.5757 56.8459 13.2859 54.5125C7.78602 51.9577 3.92669 47.743 1.85 42.075C0.884677 39.2206 0.541822 36.7853 0.554587 33.7948C0.554529 33.4356 0.55447 33.0764 0.55441 32.7063C0.554688 31.5224 0.557797 30.3386 0.560935 29.1547C0.561681 28.3325 0.56225 27.5103 0.56265 26.6881C0.564175 24.5266 0.568104 22.3651 0.572531 20.2036C0.576627 17.9969 0.578451 15.7903 0.580466 13.5836C0.584753 9.25573 0.591578 4.92786 0.599997 0.600002Z" fill="white"/>
<path d="M34.8322 17.4693C40.2486 21.8014 42.7904 26.7756 43.55 33.575C44.0545 37.4518 44.6 40.6508 47.8 43.2C50.0264 44.6788 51.9454 45.1363 54.6 45.8C54.6 49.232 54.6 52.664 54.6 56.2C48.4657 56.2 43.5436 54.5539 39.025 50.3016C35.1625 46.0806 33.3836 41.1976 32.8922 35.6081C32.5637 32.1016 31.6429 29.0705 29 26.6C26.2531 24.7981 23.3253 23.738 20.0328 24.3922C17.0464 25.2976 14.9921 27.0066 12.6 29C12.6 24.644 12.6 20.288 12.6 15.8C20.089 12.4715 27.9769 12.3803 34.8322 17.4693Z" fill="white"/>
<path d="M33 0.599998C36.417 0.979665 38.5537 1.29038 40.9313 3.75937C43.4256 6.91964 43.45 9.20004 43.8 13.4C49.146 13.598 49.146 13.598 54.6 13.8C54.6 17.232 54.6 20.664 54.6 24.2C50.904 24.2 47.208 24.2 43.4 24.2C43.268 24.728 43.136 25.256 43 25.8C42.7587 25.4478 42.5174 25.0957 42.2688 24.7328C41.9459 24.2635 41.623 23.7942 41.3 23.325C41.1417 23.0937 40.9834 22.8625 40.8203 22.6242C39.3269 20.4576 37.9624 18.5926 35.75 17.1C35.4025 16.8628 35.0549 16.6256 34.6969 16.3812C33.8342 15.7986 33.8342 15.7986 33 15.4C33 10.516 33 5.632 33 0.599998Z" fill="white"/>
</svg>
