<svg width="51" height="57" viewBox="0 0 51 57" fill="none" xmlns="http://www.w3.org/2000/svg">
<path d="M0.991311 0.599994C3.83244 0.559651 5.72395 1.13951 7.91431 3.14999C10.1052 6.0077 11.0234 8.46708 11.0096 12.212C11.0098 12.6107 11.0098 12.6107 11.0101 13.0175C11.0101 13.5899 11.0087 14.1624 11.0058 14.7348C11.002 15.6454 11.004 16.5559 11.0078 17.4665C11.018 20.054 11.0227 22.6413 11.0119 25.2288C11.0057 26.8168 11.0104 28.4045 11.0217 29.9925C11.0239 30.5925 11.0222 31.1926 11.0162 31.7926C10.979 35.6864 11.3511 38.951 13.5033 42.2C16.2448 44.8173 18.5779 45.1423 22.1556 45.1141C23.8598 44.9626 25.0009 44.4613 26.3833 43.4C26.7249 43.1442 27.0664 42.8885 27.4183 42.625C28.2632 41.7591 28.7459 40.8834 29.3273 39.8C29.5702 39.8 29.8131 39.8 30.0633 39.8C30.2279 40.2295 30.3925 40.659 30.5621 41.1016C30.7867 41.6761 31.0114 42.2506 31.2363 42.825C31.3438 43.1068 31.4512 43.3886 31.5619 43.6789C32.1473 45.1635 32.7598 46.4294 33.67 47.7109C34.4793 49 34.4793 49 34.3837 49.8369C33.6666 51.8459 31.4159 53.0526 29.7399 53.9969C24.0973 56.6996 18.4489 56.8459 12.6624 54.5125C7.60245 51.9577 4.05187 47.743 2.14131 42.075C1.25322 39.2206 0.93779 36.7853 0.949533 33.7948C0.94948 33.4356 0.949426 33.0764 0.949371 32.7063C0.949626 31.5224 0.952487 30.3385 0.955373 29.1547C0.95606 28.3325 0.956584 27.5103 0.956951 26.6881C0.958355 24.5266 0.961969 22.3651 0.966042 20.2036C0.96981 17.9969 0.971488 15.7903 0.973342 13.5836C0.977286 9.25572 0.983565 4.92786 0.991311 0.599994Z" fill="#0771B7"/>
<path d="M32.4849 17.4693C37.468 21.8014 39.8064 26.7756 40.5053 33.575C40.9694 37.4518 41.4712 40.6508 44.4153 43.2C46.4636 44.6788 48.229 45.1363 50.6713 45.8C50.6713 49.232 50.6713 52.664 50.6713 56.2C45.0277 56.2 40.4994 54.5539 36.3423 50.3016C32.7887 46.0806 31.1522 41.1976 30.7001 35.6081C30.3979 32.1016 29.5507 29.0705 27.1193 26.6C24.5921 24.7981 21.8985 23.738 18.8694 24.3922C16.1219 25.2976 14.232 27.0066 12.0312 29C12.0312 24.644 12.0312 20.288 12.0312 15.8C18.9212 12.4715 26.178 12.3803 32.4849 17.4693Z" fill="#0771B7"/>
<path d="M30.8008 0.600006C33.9444 0.979673 35.9102 1.29039 38.0975 3.75938C40.3923 6.91965 40.4148 9.20005 40.7368 13.4C45.6551 13.598 45.6551 13.598 50.6728 13.8C50.6728 17.232 50.6728 20.664 50.6728 24.2C47.2725 24.2 43.8721 24.2 40.3688 24.2C40.2473 24.728 40.1259 25.256 40.0008 25.8C39.7788 25.4478 39.5568 25.0957 39.328 24.7328C39.031 24.2635 38.7339 23.7943 38.4368 23.325C38.2911 23.0937 38.1455 22.8625 37.9955 22.6242C36.6216 20.4576 35.3662 18.5926 33.3308 17.1C33.0111 16.8628 32.6913 16.6256 32.3619 16.3813C31.5683 15.7986 31.5683 15.7986 30.8008 15.4C30.8008 10.516 30.8008 5.63201 30.8008 0.600006Z" fill="#2AA9E0"/>
</svg>
