<svg width="24" height="24" viewBox="0 0 24 24" fill="none" xmlns="http://www.w3.org/2000/svg">
<g id="class" clip-path="url(#clip0_575_12412)">
<path id="Vector" d="M0.698175 2.66235C0.753326 2.66195 0.753326 2.66195 0.809591 2.66154C0.887492 2.6611 0.965393 2.66079 1.04329 2.66061C1.16213 2.66016 1.28092 2.65871 1.39974 2.65723C1.47546 2.65692 1.55117 2.65667 1.62689 2.65649C1.68 2.65563 1.68 2.65563 1.73418 2.65474C1.99972 2.65586 2.13918 2.71346 2.33379 2.88739C2.4243 3.06673 2.41065 3.24433 2.4093 3.44238C2.40943 3.48537 2.40956 3.52836 2.4097 3.57265C2.4098 3.66343 2.40954 3.75421 2.40895 3.84499C2.4082 3.98388 2.40895 4.12271 2.40984 4.2616C2.40975 4.34985 2.40957 4.43811 2.4093 4.52637C2.40972 4.58863 2.40972 4.58863 2.41016 4.65215C2.4069 4.93744 2.4069 4.93744 2.32903 5.08722C2.19949 5.20036 2.09034 5.20312 1.92187 5.20312C1.79053 5.12032 1.71022 5.06107 1.64062 4.92187C1.63657 4.80898 1.6352 4.69747 1.63604 4.58459C1.63611 4.55143 1.63617 4.51827 1.63624 4.4841C1.6365 4.37807 1.63709 4.27205 1.63769 4.16601C1.63792 4.09418 1.63814 4.02234 1.63833 3.9505C1.63881 3.77429 1.63972 3.59809 1.64062 3.42187C1.33124 3.42187 1.02187 3.42187 0.703119 3.42187C0.703119 9.08344 0.703119 14.745 0.703119 20.5781C1.01249 20.5781 1.32187 20.5781 1.64062 20.5781C1.64053 20.5049 1.64045 20.4316 1.64036 20.3561C1.63833 18.6179 1.63678 16.8798 1.63583 15.1416C1.63571 14.9278 1.63559 14.714 1.63547 14.5002C1.63544 14.4576 1.63542 14.415 1.63539 14.3712C1.63499 13.6814 1.63425 12.9916 1.63339 12.3019C1.63251 11.5944 1.63199 10.8869 1.6318 10.1795C1.63167 9.74274 1.63126 9.30599 1.6305 8.86925C1.63001 8.56999 1.62986 8.27074 1.62998 7.97149C1.63004 7.79868 1.62994 7.62588 1.62944 7.45307C1.6289 7.26593 1.62909 7.0788 1.62934 6.89166C1.62907 6.83676 1.6288 6.78186 1.62852 6.72529C1.6287 6.67528 1.62889 6.62527 1.62908 6.57374C1.62905 6.53053 1.62901 6.48731 1.62898 6.44278C1.64144 6.32005 1.66958 6.2449 1.73437 6.14062C1.86074 6.04234 1.92623 6.0471 2.08886 6.05566C2.25168 6.09415 2.29451 6.10551 2.39062 6.23437C2.40753 6.33848 2.40753 6.33848 2.40658 6.46118C2.40657 6.53015 2.40657 6.53015 2.40655 6.6005C2.40583 6.65002 2.4051 6.69953 2.40435 6.75055C2.40415 6.80133 2.40395 6.85211 2.40375 6.90444C2.40296 7.06684 2.4012 7.22921 2.39941 7.3916C2.3987 7.50162 2.39806 7.61163 2.39749 7.72165C2.39605 7.99153 2.3933 8.26136 2.39062 8.53125C2.73093 8.53125 3.07124 8.53125 3.42187 8.53125C3.41635 8.28375 3.41635 8.28375 3.4092 8.0363C3.40595 7.74464 3.46136 7.52695 3.65331 7.29785C3.85593 7.13208 4.00291 7.11325 4.26505 7.11307C4.29819 7.11292 4.33132 7.11277 4.36546 7.11262C4.47705 7.11222 4.58863 7.1125 4.70022 7.11278C4.78081 7.11264 4.8614 7.11246 4.94199 7.11224C5.16389 7.11175 5.38579 7.11186 5.60769 7.11206C5.84683 7.11217 6.08597 7.11175 6.32511 7.1114C6.79379 7.1108 7.26246 7.11072 7.73114 7.11083C8.112 7.11091 8.49285 7.11083 8.8737 7.11063C8.92785 7.1106 8.98199 7.11057 9.03777 7.11054C9.14775 7.11049 9.25774 7.11043 9.36772 7.11037C10.3998 7.10986 11.432 7.10997 12.4641 7.11025C13.4089 7.11049 14.3537 7.10997 15.2984 7.10907C16.2679 7.10817 17.2373 7.10778 18.2068 7.10795C18.7513 7.10804 19.2958 7.10793 19.8404 7.10727C20.3039 7.10671 20.7675 7.10664 21.2311 7.10721C21.4677 7.10749 21.7043 7.10753 21.9409 7.10697C22.1574 7.10647 22.3739 7.10661 22.5904 7.10727C22.6689 7.10739 22.7473 7.10728 22.8257 7.1069C22.9321 7.10643 23.0386 7.10682 23.145 7.10743C23.2338 7.10743 23.2338 7.10743 23.3243 7.10743C23.5712 7.13453 23.7202 7.22247 23.8985 7.39193C24.0172 7.57312 24.0331 7.70695 24.0301 7.9166C24.0305 7.95298 24.0309 7.98936 24.0313 8.02684C24.0323 8.1483 24.0317 8.2697 24.0311 8.39116C24.0315 8.47842 24.032 8.56567 24.0325 8.65292C24.0338 8.88963 24.0336 9.12631 24.033 9.36302C24.0327 9.5607 24.0331 9.75838 24.0335 9.95607C24.0344 10.4225 24.0342 10.8888 24.0331 11.3552C24.0321 11.8362 24.0329 12.3172 24.0347 12.7982C24.0361 13.2113 24.0365 13.6245 24.036 14.0376C24.0357 14.2843 24.0358 14.531 24.0369 14.7776C24.0379 15.0096 24.0375 15.2415 24.0361 15.4735C24.0358 15.5586 24.036 15.6436 24.0367 15.7287C24.0421 16.4511 24.0421 16.4511 23.8718 16.6645C23.6373 16.8683 23.4158 16.889 23.1129 16.8886C23.0762 16.8889 23.0396 16.8892 23.0018 16.8896C22.8809 16.8905 22.76 16.8906 22.6392 16.8907C22.5549 16.891 22.4707 16.8914 22.3865 16.8917C22.2101 16.8923 22.0337 16.8924 21.8574 16.8924C21.6315 16.8924 21.4056 16.8936 21.1798 16.8953C21.0059 16.8963 20.832 16.8965 20.6581 16.8964C20.5748 16.8966 20.4916 16.897 20.4083 16.8977C20.2918 16.8986 20.1754 16.8983 20.0589 16.8978C20.0246 16.8983 19.9903 16.8988 19.955 16.8994C19.7285 16.8966 19.6115 16.8496 19.4531 16.6875C19.422 16.5937 19.422 16.5937 19.4238 16.5C19.4229 16.4536 19.4229 16.4536 19.422 16.4062C19.4531 16.3125 19.4531 16.3125 19.6875 16.125C20.8786 16.125 22.0697 16.125 23.2969 16.125C23.2969 13.4025 23.2969 10.68 23.2969 7.875C16.9856 7.875 10.6744 7.875 4.17187 7.875C4.17187 10.5975 4.17187 13.32 4.17187 16.125C5.1916 16.1228 6.21133 16.1206 7.26196 16.1184C7.90624 16.1174 8.55053 16.1165 9.19482 16.1158C9.53314 16.1155 9.87145 16.1151 10.2098 16.1147C10.2522 16.1146 10.2946 16.1146 10.3383 16.1145C11.0234 16.1137 11.7085 16.1123 12.3936 16.1105C13.0964 16.1088 13.7992 16.1077 14.502 16.1074C14.9358 16.1071 15.3697 16.1063 15.8036 16.1048C16.1009 16.1038 16.3981 16.1035 16.6954 16.1037C16.8671 16.1038 17.0388 16.1036 17.2104 16.1026C17.3963 16.1016 17.5822 16.1019 17.7681 16.1025C17.8227 16.1019 17.8772 16.1014 17.9334 16.1008C18.0079 16.1014 18.0079 16.1014 18.084 16.1019C18.1484 16.1018 18.1484 16.1018 18.2141 16.1017C18.3639 16.1323 18.4202 16.1957 18.5156 16.3125C18.5422 16.4062 18.5422 16.4062 18.542 16.5C18.5435 16.5464 18.5435 16.5464 18.5451 16.5937C18.4955 16.7514 18.4238 16.7906 18.2812 16.875C18.0913 16.9036 17.9025 16.9003 17.7107 16.8988C17.6522 16.8991 17.5936 16.8994 17.5333 16.8997C17.3709 16.9005 17.2086 16.9001 17.0462 16.8995C16.871 16.8991 16.6958 16.8997 16.5207 16.9003C16.1775 16.9011 15.8344 16.9009 15.4913 16.9004C15.2124 16.8999 14.9335 16.8999 14.6545 16.9001C14.6149 16.9001 14.5752 16.9001 14.5343 16.9002C14.4537 16.9002 14.3731 16.9003 14.2925 16.9004C13.5363 16.9009 12.7801 16.9003 12.0239 16.8993C11.3752 16.8984 10.7264 16.8986 10.0777 16.8994C9.32438 16.9004 8.57108 16.9008 7.81778 16.9003C7.73743 16.9002 7.65708 16.9001 7.57674 16.9001C7.5372 16.9001 7.49767 16.9 7.45694 16.9C7.17843 16.8998 6.89993 16.9001 6.62143 16.9006C6.28192 16.9011 5.94242 16.9009 5.60292 16.8999C5.42971 16.8994 5.25651 16.8993 5.08331 16.8999C4.8955 16.9005 4.70773 16.8997 4.51992 16.8988C4.46522 16.8992 4.41053 16.8996 4.35418 16.9001C4.04896 16.8971 3.85636 16.8722 3.60937 16.6875C3.46352 16.493 3.41547 16.3132 3.41729 16.073C3.41741 16.0411 3.41753 16.0092 3.41765 15.9764C3.41807 15.9365 3.4185 15.8966 3.41894 15.8555C3.41991 15.7279 3.42087 15.6002 3.42187 15.4687C3.08156 15.4687 2.74124 15.4687 2.39062 15.4687C2.39185 15.6348 2.39307 15.8009 2.39434 15.972C2.39822 16.5206 2.40082 17.0692 2.40276 17.6177C2.40397 17.9504 2.40562 18.283 2.4083 18.6156C2.41089 18.9365 2.41225 19.2575 2.41286 19.5784C2.41329 19.7009 2.41413 19.8234 2.4154 19.9459C2.4171 20.1174 2.41734 20.2888 2.41723 20.4603C2.41807 20.511 2.41891 20.5617 2.41978 20.614C2.41714 20.9984 2.41714 20.9984 2.28056 21.1714C2.01555 21.4055 1.63571 21.3421 1.29948 21.3445C1.22051 21.3453 1.14154 21.3466 1.06259 21.3484C0.948303 21.351 0.834093 21.352 0.719781 21.3527C0.684762 21.3537 0.649743 21.3548 0.613663 21.3559C0.42761 21.3551 0.308782 21.3309 0.165945 21.2153C-0.00873118 21.037 -0.00593757 20.9531 -0.00642867 20.7081C-0.00655298 20.6777 -0.00667728 20.6473 -0.00680535 20.616C-0.00716715 20.5131 -0.00719222 20.4102 -0.00722019 20.3073C-0.0074083 20.2331 -0.00761635 20.159 -0.00784269 20.0849C-0.00840472 19.8804 -0.00866858 19.6759 -0.00888241 19.4715C-0.00916117 19.2512 -0.00970549 19.031 -0.0102085 18.8108C-0.0113591 18.2786 -0.0120439 17.7463 -0.0126489 17.2141C-0.0128228 17.0639 -0.013009 16.9136 -0.0131998 16.7634C-0.0143826 15.831 -0.0154167 14.8986 -0.0159995 13.9661C-0.0161368 13.7501 -0.0162757 13.534 -0.016417 13.3179C-0.0164519 13.2642 -0.0164869 13.2105 -0.0165229 13.1552C-0.0171163 12.2848 -0.0186739 11.4145 -0.0206264 10.5441C-0.0226132 9.65116 -0.0237194 8.75821 -0.0239646 7.86524C-0.0241248 7.36362 -0.0246779 6.86201 -0.0262194 6.3604C-0.0275297 5.93327 -0.0280484 5.50616 -0.0275227 5.07904C-0.027279 4.86102 -0.0274184 4.64303 -0.0285758 4.42502C-0.0296261 4.2255 -0.0295985 4.02601 -0.0287068 3.82649C-0.028575 3.75425 -0.0288411 3.68201 -0.0295418 3.60978C-0.0350753 3.00225 -0.0350753 3.00225 0.113103 2.81752C0.308695 2.65821 0.454224 2.66371 0.698175 2.66235ZM2.39062 9.28125C2.39062 11.0756 2.39062 12.87 2.39062 14.7187C2.73093 14.7187 3.07124 14.7187 3.42187 14.7187C3.42187 12.9244 3.42187 11.13 3.42187 9.28125C3.08156 9.28125 2.74124 9.28125 2.39062 9.28125Z" fill="black"/>
<path id="Vector_2" d="M13.8281 10.1719C13.9783 10.3376 14.0619 10.4955 14.1409 10.7038C14.152 10.7326 14.1631 10.7615 14.1745 10.7912C14.2107 10.8858 14.2462 10.9806 14.2817 11.0755C14.3067 11.1418 14.3318 11.208 14.3569 11.2743C14.4092 11.4128 14.4612 11.5515 14.513 11.6902C14.5793 11.8677 14.6466 12.0448 14.7141 12.2218C14.7661 12.3584 14.8175 12.4953 14.8687 12.6321C14.8932 12.6975 14.918 12.7629 14.943 12.8281C14.9778 12.9194 15.0118 13.011 15.0457 13.1027C15.0652 13.1546 15.0847 13.2066 15.1048 13.2601C15.1446 13.4226 15.1352 13.5266 15.0938 13.6875C15.0113 13.8203 14.9483 13.8295 14.7949 13.8721C14.625 13.875 14.625 13.875 14.499 13.8164C14.3906 13.6875 14.3906 13.6875 14.2031 13.1719C13.7855 13.1719 13.3678 13.1719 12.9375 13.1719C12.8215 13.4503 12.8215 13.4503 12.7031 13.7344C12.5156 13.875 12.5156 13.875 12.3486 13.8691C12.1242 13.812 12.1242 13.812 12.0469 13.6875C11.9968 13.4807 12.0008 13.3537 12.077 13.1559C12.095 13.1082 12.1131 13.0604 12.1316 13.0112C12.1516 12.9603 12.1716 12.9093 12.1923 12.8568C12.2126 12.8035 12.2329 12.7502 12.2538 12.6952C12.319 12.5248 12.3851 12.3547 12.4512 12.1846C12.4946 12.0713 12.538 11.9581 12.5814 11.8448C12.6804 11.5864 12.7798 11.3282 12.8804 11.0703C12.9208 10.9652 12.9604 10.8598 12.9993 10.7542C13.0196 10.6995 13.0399 10.6449 13.0608 10.5885C13.079 10.5389 13.0971 10.4893 13.1158 10.4381C13.1681 10.3209 13.2037 10.2559 13.3037 10.1777C13.4877 10.1128 13.6459 10.0918 13.8281 10.1719ZM13.5469 11.4844C13.4921 11.624 13.4374 11.7636 13.3828 11.9033C13.3672 11.9432 13.3515 11.983 13.3354 12.0241C13.3206 12.062 13.3058 12.0999 13.2905 12.139C13.2768 12.1741 13.263 12.2092 13.2489 12.2454C13.2161 12.3208 13.2161 12.3208 13.2188 12.375C13.4508 12.375 13.6828 12.375 13.9219 12.375C13.8773 12.244 13.8323 12.1132 13.7871 11.9824C13.7745 11.9452 13.7619 11.908 13.7488 11.8696C13.7365 11.834 13.7241 11.7983 13.7113 11.7616C13.7 11.7287 13.6887 11.6958 13.6771 11.6619C13.6426 11.5686 13.6426 11.5686 13.5469 11.4844Z" fill="black"/>
<path id="Vector_3" d="M22.175 10.4811C22.2656 10.5469 22.2656 10.5469 22.3125 10.6406C22.3449 10.9754 22.3449 10.9754 22.2158 11.1357C22.0326 11.2254 21.9456 11.2102 21.75 11.1563C21.6699 11.1088 21.5897 11.0612 21.5103 11.0125C21.3475 10.932 21.1802 10.9121 21 10.9219C20.8373 10.9815 20.8373 10.9815 20.7188 11.0625C20.7188 11.1398 20.7188 11.2172 20.7188 11.2969C20.7585 11.3134 20.7983 11.3299 20.8392 11.3469C21.0186 11.4223 21.1971 11.4994 21.375 11.5781C21.405 11.5914 21.435 11.6047 21.466 11.6184C21.8875 11.8079 22.212 11.9873 22.4062 12.4219C22.4743 12.7619 22.4457 13.012 22.2803 13.3184C22.0099 13.6545 21.7345 13.8364 21.3018 13.8898C20.8317 13.911 20.3586 13.7834 19.9966 13.4766C19.8032 13.2946 19.8032 13.2946 19.7344 13.1719C19.7372 13.0093 19.7527 12.8959 19.8311 12.7529C19.9848 12.6686 20.13 12.6652 20.2969 12.7031C20.4006 12.7665 20.4905 12.8381 20.5842 12.9155C20.7948 13.0809 21.0212 13.1013 21.2812 13.0781C21.4588 13.0056 21.4588 13.0056 21.6094 12.8906C21.6368 12.756 21.6368 12.756 21.6094 12.6094C21.3391 12.3864 21 12.2877 20.6744 12.1696C20.326 12.0351 20.125 11.8827 19.9523 11.5497C19.8781 11.2757 19.878 10.981 19.9951 10.7197C20.1566 10.4452 20.3643 10.2785 20.666 10.1777C21.2323 10.034 21.6865 10.1816 22.175 10.4811Z" fill="black"/>
<path id="Vector_4" d="M18.5187 10.4811C18.6094 10.5469 18.6094 10.5469 18.6562 10.6406C18.6886 10.9754 18.6886 10.9754 18.5596 11.1357C18.3764 11.2254 18.2894 11.2102 18.0938 11.1563C18.0136 11.1088 17.9335 11.0612 17.8541 11.0125C17.6913 10.932 17.524 10.9121 17.3438 10.9219C17.181 10.9815 17.181 10.9815 17.0625 11.0625C17.0625 11.1398 17.0625 11.2172 17.0625 11.2969C17.1023 11.3134 17.142 11.3299 17.183 11.3469C17.3623 11.4223 17.5408 11.4994 17.7188 11.5781C17.7488 11.5914 17.7788 11.6047 17.8097 11.6184C18.2421 11.8128 18.5668 11.984 18.7471 12.4395C18.8208 12.6993 18.8158 12.9296 18.7057 13.1781C18.5137 13.5124 18.2539 13.7473 17.8799 13.8528C17.4128 13.9434 16.9381 13.8598 16.5253 13.6207C16.3513 13.4955 16.1837 13.36 16.0781 13.1719C16.0809 13.0093 16.0964 12.8959 16.1748 12.7529C16.3286 12.6686 16.4738 12.6652 16.6406 12.7031C16.7443 12.7665 16.8343 12.8381 16.9279 12.9155C17.1386 13.0809 17.3649 13.1013 17.625 13.0781C17.8036 13.0141 17.8835 12.982 17.9707 12.8115C17.9804 12.7758 17.99 12.74 18 12.7031C17.7588 12.4012 17.4061 12.3141 17.0538 12.184C16.6894 12.0419 16.4771 11.8988 16.296 11.5497C16.2218 11.2757 16.2218 10.981 16.3389 10.7197C16.5003 10.4452 16.7081 10.2785 17.0098 10.1777C17.576 10.034 18.0302 10.1816 18.5187 10.4811Z" fill="black"/>
<path id="Vector_5" d="M7.90724 10.4062C8.07285 10.5495 8.07285 10.5495 8.10939 10.6875C8.10055 10.8319 8.08657 10.932 8.00685 11.0537C7.87759 11.1384 7.79662 11.1534 7.64064 11.1562C7.54505 11.1187 7.54505 11.1187 7.44142 11.0684C7.14152 10.9239 6.85384 10.8794 6.53028 10.9717C6.21917 11.0948 6.02125 11.2638 5.88575 11.5723C5.76161 11.9323 5.78498 12.1976 5.93794 12.5469C6.08798 12.8112 6.32209 12.9641 6.60774 13.056C6.89881 13.1236 7.10673 13.0876 7.36836 12.9448C7.46316 12.887 7.46316 12.887 7.57618 12.7852C7.68751 12.7031 7.68751 12.7031 7.82814 12.6768C8.02051 12.7128 8.0878 12.7815 8.20314 12.9375C8.23829 13.0693 8.23829 13.0693 8.20314 13.2187C8.02477 13.4965 7.80564 13.6651 7.50001 13.7812C7.44974 13.8006 7.39946 13.8199 7.34767 13.8398C6.83982 13.9414 6.3265 13.885 5.8777 13.6135C5.45768 13.3006 5.14366 12.9072 5.03047 12.3871C4.94644 11.7875 5.07322 11.2659 5.43751 10.7812C6.08589 10.0848 7.06949 9.89008 7.90724 10.4062Z" fill="black"/>
<path id="Vector_6" d="M9.6797 10.1338C9.89139 10.1829 9.89139 10.1829 9.98439 10.3125C10.0013 10.4362 10.0013 10.4362 10.0004 10.5866C10.0003 10.6429 10.0003 10.6992 10.0003 10.7572C9.9996 10.818 9.99887 10.8788 9.99812 10.9415C9.99786 11.0043 9.99766 11.0672 9.99752 11.13C9.99698 11.2953 9.9956 11.4606 9.99405 11.6259C9.99261 11.7946 9.99196 11.9634 9.99126 12.1321C9.98975 12.4631 9.98735 12.794 9.98439 13.125C10.0431 13.1234 10.1019 13.1217 10.1624 13.1201C10.2398 13.1187 10.3172 13.1175 10.3945 13.1162C10.4332 13.115 10.4719 13.1139 10.5117 13.1126C10.7974 13.1092 10.7974 13.1092 10.9464 13.1858C11.0565 13.3127 11.0568 13.4297 11.0625 13.5937C11.0258 13.7174 10.9974 13.763 10.8891 13.8321C10.6591 13.9236 10.3956 13.8923 10.1514 13.8926C10.0938 13.8937 10.0363 13.8949 9.97697 13.8961C9.92147 13.8962 9.86597 13.8964 9.80879 13.8966C9.73289 13.8972 9.73289 13.8972 9.65545 13.8978C9.48208 13.8695 9.4048 13.8103 9.28126 13.6875C9.22939 13.5319 9.22781 13.4146 9.22684 13.2506C9.22639 13.1895 9.22594 13.1283 9.22547 13.0653C9.22524 12.9984 9.22504 12.9315 9.22487 12.8646C9.2246 12.796 9.22433 12.7274 9.22406 12.6588C9.22357 12.515 9.22329 12.3712 9.22313 12.2273C9.22287 12.0433 9.22174 11.8593 9.22041 11.6752C9.21954 11.5335 9.21929 11.3918 9.21922 11.2501C9.21908 11.1822 9.2187 11.1144 9.21809 11.0466C9.21729 10.9515 9.21746 10.8565 9.21768 10.7615C9.21751 10.7075 9.21734 10.6535 9.21716 10.5978C9.23653 10.4351 9.27706 10.349 9.37501 10.2187C9.51564 10.125 9.51564 10.125 9.6797 10.1338Z" fill="black"/>
<path id="Vector_7" d="M22.0312 14.4375C22.1971 14.5149 22.2568 14.5648 22.3594 14.7188C22.3849 14.8624 22.3848 14.9969 22.3594 15.1406C22.2571 15.2698 22.1779 15.3486 22.0312 15.4219C21.8167 15.4277 21.6564 15.4162 21.4922 15.2725C21.4133 15.1245 21.3784 15.0274 21.375 14.8594C21.5043 14.5122 21.66 14.3984 22.0312 14.4375Z" fill="black"/>
<path id="Vector_8" d="M5.71875 14.4375C5.88463 14.5149 5.94425 14.5648 6.04688 14.7188C6.07244 14.8624 6.07234 14.9969 6.04688 15.1406C5.94461 15.2698 5.86539 15.3486 5.71875 15.4219C5.50421 15.4277 5.34393 15.4162 5.17969 15.2725C5.10077 15.1245 5.06593 15.0274 5.0625 14.8594C5.19183 14.5122 5.3475 14.3984 5.71875 14.4375Z" fill="black"/>
<path id="Vector_9" d="M22.0312 8.57812C22.2928 8.72615 22.2928 8.72615 22.3594 8.85937C22.3852 9.07494 22.3883 9.23333 22.2744 9.42187C22.1408 9.54401 22.0524 9.56054 21.873 9.57714C21.6723 9.55984 21.6058 9.5199 21.4687 9.375C21.3891 9.23741 21.3742 9.15913 21.3809 9C21.4285 8.83669 21.4913 8.74653 21.6094 8.625C21.7665 8.57263 21.8664 8.56196 22.0312 8.57812Z" fill="black"/>
<path id="Vector_10" d="M5.71875 8.57812C5.98026 8.72615 5.98026 8.72615 6.04687 8.85937C6.07271 9.07494 6.07582 9.23333 5.96191 9.42187C5.82832 9.54401 5.73987 9.56054 5.56055 9.57714C5.35984 9.55984 5.29333 9.5199 5.15625 9.375C5.07659 9.23741 5.06173 9.15913 5.06836 9C5.11599 8.83669 5.17881 8.74653 5.29687 8.625C5.45397 8.57263 5.5539 8.56196 5.71875 8.57812Z" fill="black"/>
</g>
<defs>
<clipPath id="clip0_575_12412">
<rect width="24" height="24" fill="white"/>
</clipPath>
</defs>
</svg>
